<svg width="200" height="45" viewBox="0 0 200 45" fill="none" xmlns="http://www.w3.org/2000/svg">
<g clip-path="url(#clip0_5_67)">
<g clip-path="url(#clip1_5_67)">
<g clip-path="url(#clip2_5_67)">
<g clip-path="url(#clip3_5_67)">
<path d="M46.2105 2.09393C46.2105 0.937484 45.3493 0 44.2871 0C43.2248 0 42.3636 0.937484 42.3636 2.09393V42.9798C42.3636 44.1363 43.2248 45.0738 44.2871 45.0738C45.3493 45.0738 46.2105 44.1363 46.2105 42.9798V2.09393Z" fill="white"/>
<g clip-path="url(#clip4_5_67)">
<g clip-path="url(#clip5_5_67)">
<g clip-path="url(#clip6_5_67)">
<g clip-path="url(#clip7_5_67)">
<path d="M72.5377 27.5388L70.5346 35.4844H63.7058L56.2853 11.2169H63.1595L65.1626 19.2103C65.6482 21.2207 66.058 23.03 66.3918 24.6382C66.7257 26.2529 66.9229 27.3633 66.9836 27.9696L67.1202 28.8791C67.3327 26.9645 68.0762 23.7415 69.3509 19.2103L71.5817 11.2169H77.3178L79.503 19.2103C80.0493 21.2526 80.5045 23.0778 80.8687 24.6861C81.2329 26.3007 81.4606 27.4112 81.5516 28.0175L81.6882 28.8791C81.9006 26.9964 82.6139 23.7735 83.8279 19.2103L85.9675 11.2169H92.5231L85.1481 35.4844H78.3193L76.3163 27.5388C75.8914 25.8157 75.5211 24.2042 75.2054 22.7045C74.8837 21.2047 74.6774 20.1357 74.5863 19.4975L74.4497 18.5402C74.1462 20.6782 73.5089 23.6777 72.5377 27.5388ZM113.601 28.2568V34.0963C112.023 35.1813 109.61 35.7238 106.363 35.7238C102.569 35.7238 99.6159 34.5654 97.5036 32.2488C95.3973 29.9385 94.3441 26.9645 94.3441 23.3267C94.3441 19.4656 95.3669 16.4405 97.4125 14.2515C99.4642 12.0689 101.992 10.9775 104.997 10.9775C108.093 10.9775 110.536 11.9253 112.326 13.8207C114.117 15.7226 115.012 18.5562 115.012 22.3216C115.012 23.0555 114.891 24.3159 114.648 26.1029H101.082C101.537 27.4431 102.326 28.4802 103.449 29.2141C104.572 29.948 105.923 30.315 107.501 30.315C109.838 30.315 111.871 29.6289 113.601 28.2568ZM105.27 16.2906C104.208 16.2906 103.267 16.6958 102.448 17.5063C101.628 18.3232 101.082 19.5294 100.809 21.1249H108.821V20.5505C108.609 17.7106 107.425 16.2906 105.27 16.2906ZM133.222 29.1662V34.9579C132.099 35.4685 130.582 35.7238 128.67 35.7238C123.419 35.7238 120.794 32.9635 120.794 27.4431V16.3384H117.471V11.2169H120.794V5.47306H127.441V11.2169H132.813V16.3384H127.441V27.491C127.441 28.3525 127.674 29.0067 128.142 29.4534C128.615 29.9002 129.231 30.1235 129.99 30.1235C131.204 30.1235 132.282 29.8044 133.222 29.1662ZM144.185 1.64387V35.4844H137.538V1.64387H144.185ZM156.75 11.2169V35.4844H150.103V11.2169H156.75ZM156.158 1.30881C156.917 2.10656 157.296 3.06386 157.296 4.18071C157.296 5.29756 156.917 6.25486 156.158 7.05261C155.399 7.85036 154.489 8.24924 153.426 8.24924C152.364 8.24924 151.454 7.85036 150.695 7.05261C149.936 6.25486 149.557 5.29756 149.557 4.18071C149.557 3.06386 149.936 2.10656 150.695 1.30881C151.454 0.511058 152.364 0.112183 153.426 0.112183C154.489 0.112183 155.399 0.511058 156.158 1.30881ZM175.005 11.2169V16.3384H170.68V35.4844H164.079V16.3384H161.075V11.2169H164.079V10.3074C164.079 7.37171 164.859 5.09014 166.419 3.46273C167.985 1.83532 170.149 1.02162 172.911 1.02162C174.338 1.02162 175.491 1.18117 176.371 1.50027V7.14834C175.521 6.79733 174.732 6.62183 174.004 6.62183C172.881 6.62183 172.046 6.89306 171.5 7.43553C170.953 7.978 170.68 8.9353 170.68 10.3074V11.2169H175.005ZM199.452 11.2169L191.121 34.7665C188.723 41.5633 185.066 44.9617 180.15 44.9617C179.209 44.9617 178.359 44.8819 177.6 44.7224V39.17C178.086 39.2977 178.602 39.3615 179.148 39.3615C181.667 39.3615 183.488 37.9415 184.611 35.1015L175.688 11.2169H182.927L185.43 18.7795C186.068 20.726 186.59 22.4013 186.996 23.8054C187.409 25.2094 187.661 26.1348 187.752 26.5815L187.889 27.2516C188.223 25.9752 189.042 23.1512 190.347 18.7795L192.623 11.2169H199.452Z" fill="white"/>
</g>
</g>
</g>
</g>
<g clip-path="url(#clip8_5_67)">
<g clip-path="url(#clip9_5_67)">
<path d="M16.2971 5.71826C7.47897 5.71826 0.300781 13.2634 0.300781 22.5368H4.29986C4.29986 21.6683 4.97523 20.9599 5.79968 20.9599C6.62765 20.9599 7.29949 21.668 7.29949 22.5368H11.2986C11.2986 21.6683 11.9739 20.9599 12.7984 20.9599C13.6264 20.9599 14.2982 21.668 14.2982 22.5368V33.0484C14.2982 34.2062 13.404 35.1508 12.2987 35.1508C11.1975 35.1508 10.2991 34.2062 10.2991 33.0484H6.30004C6.30004 36.5265 8.99478 39.3554 12.2987 39.3554C15.6105 39.3554 18.2973 36.5265 18.2973 33.0484V22.5368C18.2973 21.6683 18.9727 20.9599 19.7971 20.9599C20.6251 20.9599 21.2969 21.668 21.2969 22.5368H25.296C25.296 21.6683 25.9714 20.9599 26.7958 20.9599C27.6238 20.9599 28.2956 21.668 28.2956 22.5368H32.2934C32.2934 13.2634 25.1194 5.71826 16.2971 5.71826Z" fill="white"/>
</g>
</g>
</g>
</g>
</g>
</g>
<defs>
<clipPath id="clip0_5_67">
<rect width="200" height="45" fill="white"/>
</clipPath>
<clipPath id="clip1_5_67">
<rect width="200" height="45" fill="white" transform="translate(-0.121216 0.0368652)"/>
</clipPath>
<clipPath id="clip2_5_67">
<rect width="199.156" height="45.0738" fill="white" transform="translate(0.300781)"/>
</clipPath>
<clipPath id="clip3_5_67">
<rect width="199.156" height="45.0738" fill="white" transform="translate(0.300781)"/>
</clipPath>
<clipPath id="clip4_5_67">
<rect width="143.176" height="44.8495" fill="white" transform="translate(56.2808 0.112183)"/>
</clipPath>
<clipPath id="clip5_5_67">
<rect width="143.176" height="44.8495" fill="white" transform="translate(56.2808 0.112183)"/>
</clipPath>
<clipPath id="clip6_5_67">
<rect width="143.176" height="44.8495" fill="white" transform="translate(56.2808 0.112183)"/>
</clipPath>
<clipPath id="clip7_5_67">
<rect width="143.176" height="44.8495" fill="white" transform="translate(56.2808 0.112183)"/>
</clipPath>
<clipPath id="clip8_5_67">
<rect width="31.9927" height="33.6371" fill="white" transform="translate(0.300781 5.71826)"/>
</clipPath>
<clipPath id="clip9_5_67">
<rect width="31.9927" height="33.6371" fill="white" transform="translate(0.300781 5.71826)"/>
</clipPath>
</defs>
</svg>
